<svg width="32" height="54" viewBox="0 0 32 54" fill="none" xmlns="http://www.w3.org/2000/svg">
<circle cx="16" cy="7" r="6.5" stroke="#E46198"/>
<circle cx="16" cy="7" r="4" fill="#E46198"/>
<path d="M21.0967 28.2408V27.2408C21.2489 27.1483 21.3748 27.0183 21.4624 26.8632C21.5499 26.7081 21.5962 26.5331 21.5967 26.355V23.7358C21.5964 23.4609 21.4872 23.1974 21.2928 23.003C21.0984 22.8087 20.8349 22.6994 20.56 22.6992H11.4417C11.1667 22.6994 10.9031 22.8086 10.7086 23.003C10.5141 23.1973 10.4046 23.4609 10.4042 23.7358V26.3542C10.4043 26.5622 10.4671 26.7653 10.5842 26.9373C10.7013 27.1092 10.8673 27.242 11.0608 27.3183V28.1983C10.3029 28.3875 9.62996 28.8248 9.14928 29.4406C8.6686 30.0565 8.40778 30.8154 8.40833 31.5966V48.865C8.40944 50.041 8.87702 51.1685 9.70848 52.0001C10.5399 52.8317 11.6674 53.2995 12.8433 53.3008H19.1558C20.332 53.2997 21.4597 52.832 22.2915 52.0004C23.1233 51.1688 23.5912 50.0412 23.5925 48.865V31.5966C23.5946 30.8428 23.3526 30.1085 22.9028 29.5036C22.4529 28.8987 21.8193 28.4557 21.0967 28.2408ZM20.0967 27.3933V28.05H12.0608V27.3933H20.0967ZM11.4042 23.7358C11.4042 23.7309 11.4051 23.7261 11.407 23.7216C11.4089 23.7171 11.4117 23.713 11.4152 23.7096C11.4187 23.7062 11.4228 23.7035 11.4274 23.7017C11.4319 23.6999 11.4368 23.699 11.4417 23.6992H20.5592C20.5689 23.6992 20.5782 23.703 20.5851 23.7099C20.592 23.7168 20.5958 23.7261 20.5958 23.7358V26.3542C20.5958 26.3629 20.5927 26.3714 20.587 26.3781C20.5814 26.3847 20.5736 26.3893 20.565 26.3908H11.4417C11.4319 26.3908 11.4224 26.387 11.4154 26.3801C11.4084 26.3733 11.4044 26.364 11.4042 26.3542V23.7358ZM22.5925 48.865C22.5914 49.776 22.2289 50.6494 21.5847 51.2936C20.9404 51.9377 20.0669 52.2999 19.1558 52.3008H12.8433C11.9325 52.2997 11.0593 51.9374 10.4153 51.2932C9.77137 50.6491 9.40922 49.7758 9.40833 48.865V31.5966C9.4079 30.9834 9.6329 30.3913 10.0405 29.9331C10.4482 29.475 11.01 29.1826 11.6192 29.1117C11.7154 29.1006 11.8123 29.095 11.9092 29.095H20.09C20.231 29.0951 20.3718 29.1071 20.5108 29.1308H20.515C21.0972 29.2293 21.6255 29.5312 22.006 29.9827C22.3864 30.4343 22.5943 31.0062 22.5925 31.5966V48.865Z" fill="black"/>
</svg>
