<svg width="292" height="47" viewBox="0 0 292 47" fill="none" xmlns="http://www.w3.org/2000/svg">
<rect y="5" width="292" height="16" rx="8" fill="#F5EBEF"/>
<rect y="5" width="154" height="16" rx="8" fill="url(#paint0_linear_1001_69)"/>
<circle cx="8" cy="13" r="5" fill="white"/>
<g filter="url(#filter0_d_1001_69)">
<circle cx="146" cy="13" r="8" fill="#642A75"/>
<circle cx="146" cy="13" r="9" stroke="white" stroke-width="2"/>
</g>
<circle cx="284" cy="13" r="6" fill="#EDCCD9"/>
<path d="M192.202 41C192.052 41 191.94 40.9627 191.866 40.888C191.8 40.8133 191.768 40.6967 191.768 40.538V31.662C191.768 31.5033 191.8 31.3867 191.866 31.312C191.94 31.2373 192.052 31.2 192.202 31.2H194.638C195.552 31.2 196.234 31.4193 196.682 31.858C197.139 32.2873 197.368 32.8847 197.368 33.65C197.368 34.1353 197.246 34.5833 197.004 34.994C196.761 35.4047 196.462 35.68 196.108 35.82L196.122 35.876C196.504 36.0067 196.859 36.254 197.186 36.618C197.522 36.9727 197.69 37.5 197.69 38.2C197.69 39.124 197.433 39.824 196.92 40.3C196.416 40.7667 195.66 41 194.652 41H192.202ZM194.582 35.358C194.974 35.358 195.282 35.218 195.506 34.938C195.739 34.658 195.856 34.294 195.856 33.846C195.856 33.3607 195.748 33.006 195.534 32.782C195.328 32.558 195.006 32.446 194.568 32.446H193.266V35.358H194.582ZM194.848 39.754C195.268 39.754 195.59 39.6093 195.814 39.32C196.047 39.0307 196.164 38.6247 196.164 38.102C196.164 37.6073 196.038 37.234 195.786 36.982C195.543 36.7207 195.184 36.59 194.708 36.59H193.266V39.754H194.848ZM200.015 41.028C199.585 41.028 199.371 40.9113 199.371 40.678V34C199.371 33.7667 199.585 33.65 200.015 33.65H200.155C200.584 33.65 200.799 33.7667 200.799 34V40.678C200.799 40.9113 200.584 41.028 200.155 41.028H200.015ZM200.099 32.754C199.604 32.754 199.357 32.6373 199.357 32.404V31.494C199.357 31.2607 199.604 31.144 200.099 31.144C200.584 31.144 200.827 31.2607 200.827 31.494V32.404C200.827 32.6373 200.584 32.754 200.099 32.754ZM204.395 41.098C203.957 41.098 203.583 40.958 203.275 40.678C202.977 40.398 202.827 39.9313 202.827 39.278V30.808C202.827 30.5747 203.037 30.458 203.457 30.458H203.611C204.041 30.458 204.255 30.5747 204.255 30.808V39.208C204.255 39.6747 204.409 39.908 204.717 39.908C204.811 39.908 204.89 39.8987 204.955 39.88C205.03 39.852 205.086 39.838 205.123 39.838C205.217 39.838 205.296 39.936 205.361 40.132C205.427 40.3187 205.459 40.4773 205.459 40.608C205.459 40.776 205.343 40.902 205.109 40.986C204.885 41.0607 204.647 41.098 204.395 41.098ZM208.169 41.098C207.73 41.098 207.357 40.958 207.049 40.678C206.75 40.398 206.601 39.9313 206.601 39.278V30.808C206.601 30.5747 206.811 30.458 207.231 30.458H207.385C207.814 30.458 208.029 30.5747 208.029 30.808V39.208C208.029 39.6747 208.183 39.908 208.491 39.908C208.584 39.908 208.663 39.8987 208.729 39.88C208.803 39.852 208.859 39.838 208.897 39.838C208.99 39.838 209.069 39.936 209.135 40.132C209.2 40.3187 209.233 40.4773 209.233 40.608C209.233 40.776 209.116 40.902 208.883 40.986C208.659 41.0607 208.421 41.098 208.169 41.098ZM211.116 41.028C210.687 41.028 210.472 40.9113 210.472 40.678V34C210.472 33.7667 210.687 33.65 211.116 33.65H211.256C211.686 33.65 211.9 33.7667 211.9 34V40.678C211.9 40.9113 211.686 41.028 211.256 41.028H211.116ZM211.2 32.754C210.706 32.754 210.458 32.6373 210.458 32.404V31.494C210.458 31.2607 210.706 31.144 211.2 31.144C211.686 31.144 211.928 31.2607 211.928 31.494V32.404C211.928 32.6373 211.686 32.754 211.2 32.754ZM214.545 41.028C214.144 41.028 213.943 40.9113 213.943 40.678V35.876C213.943 35.26 213.92 34.812 213.873 34.532C213.826 34.252 213.803 34.0933 213.803 34.056C213.803 33.9347 213.929 33.846 214.181 33.79C214.442 33.7247 214.662 33.692 214.839 33.692C214.988 33.692 215.086 33.7527 215.133 33.874C215.189 33.986 215.231 34.126 215.259 34.294C215.287 34.4527 215.306 34.5693 215.315 34.644C215.53 34.3173 215.791 34.0607 216.099 33.874C216.407 33.678 216.743 33.58 217.107 33.58C217.667 33.58 218.096 33.7667 218.395 34.14C218.694 34.5133 218.843 35.036 218.843 35.708V40.678C218.843 40.9113 218.642 41.028 218.241 41.028H218.003C217.583 41.028 217.373 40.9113 217.373 40.678V35.918C217.373 35.1807 217.088 34.812 216.519 34.812C216.295 34.812 216.085 34.8867 215.889 35.036C215.693 35.1853 215.53 35.386 215.399 35.638V40.678C215.399 40.9113 215.198 41.028 214.797 41.028H214.545ZM222.825 43.968C221.985 43.968 221.35 43.814 220.921 43.506C220.491 43.2073 220.277 42.7547 220.277 42.148C220.277 41.756 220.375 41.406 220.571 41.098C220.767 40.7993 221.037 40.566 221.383 40.398V40.356C221.224 40.244 221.103 40.0993 221.019 39.922C220.935 39.7447 220.893 39.5487 220.893 39.334C220.893 38.7927 221.117 38.3587 221.565 38.032C220.865 37.6867 220.515 37.0147 220.515 36.016C220.515 35.26 220.725 34.6673 221.145 34.238C221.565 33.7993 222.153 33.58 222.909 33.58C223.114 33.58 223.357 33.6127 223.637 33.678H225.653C225.765 33.678 225.844 33.7153 225.891 33.79C225.937 33.8647 225.961 33.986 225.961 34.154V34.336C225.961 34.4947 225.937 34.6113 225.891 34.686C225.853 34.7513 225.783 34.784 225.681 34.784C225.317 34.784 225.079 34.7747 224.967 34.756L224.939 34.784C225.163 35.1667 225.275 35.582 225.275 36.03C225.275 36.7113 225.079 37.2667 224.687 37.696C224.295 38.116 223.753 38.34 223.063 38.368C222.447 38.3867 222.139 38.6387 222.139 39.124C222.139 39.3853 222.246 39.5673 222.461 39.67C222.675 39.7633 223.002 39.8427 223.441 39.908L223.777 39.964C225.018 40.1693 225.639 40.79 225.639 41.826C225.639 42.5073 225.396 43.0347 224.911 43.408C224.425 43.7813 223.73 43.968 222.825 43.968ZM222.895 37.276C223.231 37.276 223.497 37.1827 223.693 36.996C223.898 36.8093 224.001 36.478 224.001 36.002C224.001 35.4887 223.898 35.134 223.693 34.938C223.497 34.742 223.231 34.644 222.895 34.644C222.549 34.644 222.279 34.742 222.083 34.938C221.896 35.134 221.803 35.4887 221.803 36.002C221.803 36.478 221.901 36.8093 222.097 36.996C222.293 37.1827 222.559 37.276 222.895 37.276ZM222.937 42.876C223.889 42.876 224.365 42.568 224.365 41.952C224.365 41.7187 224.299 41.5367 224.169 41.406C224.047 41.2753 223.893 41.182 223.707 41.126C223.52 41.0793 223.263 41.0327 222.937 40.986C222.582 40.93 222.33 40.8787 222.181 40.832C221.994 40.944 221.845 41.0933 221.733 41.28C221.621 41.4667 221.565 41.6813 221.565 41.924C221.565 42.2413 221.681 42.4793 221.915 42.638C222.148 42.7967 222.489 42.876 222.937 42.876ZM229.901 41.028C229.49 41.028 229.285 40.9113 229.285 40.678V31.522C229.285 31.2887 229.49 31.172 229.901 31.172H230.223C230.624 31.172 230.825 31.2887 230.825 31.522V40.678C230.825 40.9113 230.624 41.028 230.223 41.028H229.901ZM233.467 41.028C233.065 41.028 232.865 40.9113 232.865 40.678V35.876C232.865 35.26 232.841 34.812 232.795 34.532C232.748 34.252 232.725 34.0933 232.725 34.056C232.725 33.9347 232.851 33.846 233.103 33.79C233.364 33.7247 233.583 33.692 233.761 33.692C233.91 33.692 234.008 33.7527 234.055 33.874C234.111 33.986 234.153 34.126 234.181 34.294C234.209 34.4527 234.227 34.5693 234.237 34.644C234.451 34.3173 234.713 34.0607 235.021 33.874C235.329 33.678 235.665 33.58 236.029 33.58C236.589 33.58 237.018 33.7667 237.317 34.14C237.615 34.5133 237.765 35.036 237.765 35.708V40.678C237.765 40.9113 237.564 41.028 237.163 41.028H236.925C236.505 41.028 236.295 40.9113 236.295 40.678V35.918C236.295 35.1807 236.01 34.812 235.441 34.812C235.217 34.812 235.007 34.8867 234.811 35.036C234.615 35.1853 234.451 35.386 234.321 35.638V40.678C234.321 40.9113 234.12 41.028 233.719 41.028H233.467ZM240.515 41.028C240.085 41.028 239.871 40.9113 239.871 40.678V34.868H239.535C239.423 34.868 239.339 34.8307 239.283 34.756C239.236 34.672 239.213 34.5413 239.213 34.364V34.182C239.213 34.0047 239.236 33.8787 239.283 33.804C239.339 33.72 239.423 33.678 239.535 33.678H239.871V32.32C239.871 31.62 240.034 31.1253 240.361 30.836C240.697 30.5467 241.103 30.402 241.579 30.402C241.84 30.402 242.083 30.444 242.307 30.528C242.54 30.612 242.657 30.738 242.657 30.906C242.657 31.0087 242.619 31.1627 242.545 31.368C242.479 31.5733 242.4 31.676 242.307 31.676C242.279 31.676 242.218 31.662 242.125 31.634C242.031 31.606 241.933 31.592 241.831 31.592C241.653 31.592 241.518 31.648 241.425 31.76C241.341 31.872 241.299 32.082 241.299 32.39V33.678H242.097C242.209 33.678 242.288 33.72 242.335 33.804C242.391 33.8787 242.419 34.0047 242.419 34.182V34.364C242.419 34.5413 242.391 34.672 242.335 34.756C242.288 34.8307 242.209 34.868 242.097 34.868H241.299V40.678C241.299 40.9113 241.084 41.028 240.655 41.028H240.515ZM245.991 41.098C245.095 41.098 244.413 40.7807 243.947 40.146C243.48 39.502 243.247 38.5733 243.247 37.36C243.247 36.1467 243.48 35.2133 243.947 34.56C244.423 33.9067 245.104 33.58 245.991 33.58C246.887 33.58 247.563 33.9067 248.021 34.56C248.487 35.204 248.721 36.1373 248.721 37.36C248.721 38.5733 248.487 39.502 248.021 40.146C247.563 40.7807 246.887 41.098 245.991 41.098ZM245.977 39.908C246.415 39.908 246.733 39.7027 246.929 39.292C247.134 38.8813 247.237 38.2327 247.237 37.346C247.237 36.45 247.134 35.7967 246.929 35.386C246.733 34.9753 246.415 34.77 245.977 34.77C245.547 34.77 245.235 34.9753 245.039 35.386C244.843 35.7967 244.745 36.45 244.745 37.346C244.745 38.242 244.843 38.8953 245.039 39.306C245.235 39.7073 245.547 39.908 245.977 39.908ZM251.01 41.028C250.581 41.028 250.366 40.9113 250.366 40.678V35.876C250.366 35.26 250.338 34.812 250.282 34.532C250.226 34.252 250.198 34.0933 250.198 34.056C250.198 33.9253 250.315 33.832 250.548 33.776C250.782 33.72 250.996 33.692 251.192 33.692C251.332 33.692 251.43 33.762 251.486 33.902C251.552 34.0327 251.598 34.1773 251.626 34.336C251.664 34.4853 251.687 34.588 251.696 34.644C252.107 33.9347 252.569 33.58 253.082 33.58C253.558 33.58 253.796 33.7853 253.796 34.196C253.796 34.364 253.764 34.5553 253.698 34.77C253.642 34.9847 253.572 35.092 253.488 35.092C253.442 35.092 253.353 35.0687 253.222 35.022C253.101 34.9753 252.966 34.952 252.816 34.952C252.592 34.952 252.382 35.0453 252.186 35.232C251.99 35.4187 251.86 35.596 251.794 35.764V40.678C251.794 40.9113 251.584 41.028 251.164 41.028H251.01ZM261.523 33.58C262.037 33.58 262.447 33.762 262.755 34.126C263.073 34.49 263.231 35.036 263.231 35.764V40.678C263.231 40.9113 263.031 41.028 262.629 41.028H262.391C261.981 41.028 261.775 40.9113 261.775 40.678V35.974C261.775 35.1993 261.5 34.812 260.949 34.812C260.716 34.812 260.501 34.8913 260.305 35.05C260.119 35.1993 259.969 35.386 259.857 35.61V35.778V40.678C259.857 40.9113 259.657 41.028 259.255 41.028H259.003C258.593 41.028 258.387 40.9113 258.387 40.678V35.974C258.387 35.1993 258.112 34.812 257.561 34.812C257.3 34.812 257.071 34.9007 256.875 35.078C256.679 35.2553 256.544 35.442 256.469 35.638V40.678C256.469 40.9113 256.269 41.028 255.867 41.028H255.615C255.214 41.028 255.013 40.9113 255.013 40.678V35.876C255.013 35.26 254.99 34.812 254.943 34.532C254.897 34.252 254.873 34.0933 254.873 34.056C254.873 33.9347 254.999 33.846 255.251 33.79C255.513 33.7247 255.732 33.692 255.909 33.692C256.059 33.692 256.157 33.7527 256.203 33.874C256.259 33.986 256.301 34.126 256.329 34.294C256.357 34.4527 256.376 34.5693 256.385 34.644C256.581 34.3267 256.829 34.07 257.127 33.874C257.435 33.678 257.771 33.58 258.135 33.58C258.499 33.58 258.817 33.6687 259.087 33.846C259.358 34.014 259.559 34.2753 259.689 34.63C259.904 34.322 260.17 34.07 260.487 33.874C260.814 33.678 261.159 33.58 261.523 33.58ZM266.783 41.098C266.158 41.098 265.663 40.9067 265.299 40.524C264.945 40.1413 264.767 39.6047 264.767 38.914C264.767 38.0087 265.094 37.3553 265.747 36.954C266.401 36.5527 267.283 36.3473 268.393 36.338V35.806C268.393 35.498 268.305 35.2507 268.127 35.064C267.95 34.868 267.665 34.77 267.273 34.77C266.984 34.77 266.727 34.8073 266.503 34.882C266.289 34.9473 266.093 35.0267 265.915 35.12C265.738 35.204 265.631 35.246 265.593 35.246C265.491 35.246 265.369 35.1387 265.229 34.924C265.099 34.7093 265.033 34.546 265.033 34.434C265.033 34.3033 265.141 34.1727 265.355 34.042C265.579 33.9113 265.869 33.804 266.223 33.72C266.578 33.6267 266.947 33.58 267.329 33.58C268.141 33.58 268.757 33.776 269.177 34.168C269.607 34.56 269.821 35.1013 269.821 35.792V38.816C269.821 39.4413 269.849 39.894 269.905 40.174C269.961 40.454 269.989 40.6127 269.989 40.65C269.989 40.7807 269.873 40.874 269.639 40.93C269.415 40.986 269.205 41.014 269.009 41.014C268.869 41.014 268.767 40.9533 268.701 40.832C268.636 40.7013 268.571 40.496 268.505 40.216C268.048 40.804 267.474 41.098 266.783 41.098ZM267.133 39.866C267.656 39.866 268.076 39.6327 268.393 39.166V37.416C267.712 37.4253 267.171 37.5327 266.769 37.738C266.377 37.934 266.181 38.3073 266.181 38.858C266.181 39.53 266.499 39.866 267.133 39.866ZM273.608 41.098C273.16 41.098 272.777 40.958 272.46 40.678C272.142 40.3887 271.984 39.9127 271.984 39.25V34.868H271.62C271.508 34.868 271.424 34.8307 271.368 34.756C271.321 34.672 271.298 34.5413 271.298 34.364V34.182C271.298 34.0047 271.321 33.8787 271.368 33.804C271.424 33.72 271.508 33.678 271.62 33.678H271.984L272.166 32.25C272.184 32.0167 272.362 31.9 272.698 31.9H272.922C273.258 31.9 273.426 32.0167 273.426 32.25V33.678H274.238C274.35 33.678 274.429 33.72 274.476 33.804C274.522 33.8787 274.546 34.0047 274.546 34.182V34.364C274.546 34.5413 274.522 34.672 274.476 34.756C274.429 34.8307 274.35 34.868 274.238 34.868H273.426V39.138C273.426 39.4273 273.468 39.628 273.552 39.74C273.636 39.852 273.757 39.908 273.916 39.908C274.009 39.908 274.098 39.8987 274.182 39.88C274.266 39.852 274.326 39.838 274.364 39.838C274.457 39.838 274.532 39.9407 274.588 40.146C274.653 40.342 274.686 40.496 274.686 40.608C274.686 40.7853 274.569 40.9113 274.336 40.986C274.102 41.0607 273.86 41.098 273.608 41.098ZM276.728 41.028C276.298 41.028 276.084 40.9113 276.084 40.678V34C276.084 33.7667 276.298 33.65 276.728 33.65H276.868C277.297 33.65 277.512 33.7667 277.512 34V40.678C277.512 40.9113 277.297 41.028 276.868 41.028H276.728ZM276.812 32.754C276.317 32.754 276.07 32.6373 276.07 32.404V31.494C276.07 31.2607 276.317 31.144 276.812 31.144C277.297 31.144 277.54 31.2607 277.54 31.494V32.404C277.54 32.6373 277.297 32.754 276.812 32.754ZM281.92 41.098C281.024 41.098 280.343 40.7807 279.876 40.146C279.41 39.502 279.176 38.5733 279.176 37.36C279.176 36.1467 279.41 35.2133 279.876 34.56C280.352 33.9067 281.034 33.58 281.92 33.58C282.816 33.58 283.493 33.9067 283.95 34.56C284.417 35.204 284.65 36.1373 284.65 37.36C284.65 38.5733 284.417 39.502 283.95 40.146C283.493 40.7807 282.816 41.098 281.92 41.098ZM281.906 39.908C282.345 39.908 282.662 39.7027 282.858 39.292C283.064 38.8813 283.166 38.2327 283.166 37.346C283.166 36.45 283.064 35.7967 282.858 35.386C282.662 34.9753 282.345 34.77 281.906 34.77C281.477 34.77 281.164 34.9753 280.968 35.386C280.772 35.7967 280.674 36.45 280.674 37.346C280.674 38.242 280.772 38.8953 280.968 39.306C281.164 39.7073 281.477 39.908 281.906 39.908ZM286.828 41.028C286.427 41.028 286.226 40.9113 286.226 40.678V35.876C286.226 35.26 286.203 34.812 286.156 34.532C286.109 34.252 286.086 34.0933 286.086 34.056C286.086 33.9347 286.212 33.846 286.464 33.79C286.725 33.7247 286.945 33.692 287.122 33.692C287.271 33.692 287.369 33.7527 287.416 33.874C287.472 33.986 287.514 34.126 287.542 34.294C287.57 34.4527 287.589 34.5693 287.598 34.644C287.813 34.3173 288.074 34.0607 288.382 33.874C288.69 33.678 289.026 33.58 289.39 33.58C289.95 33.58 290.379 33.7667 290.678 34.14C290.977 34.5133 291.126 35.036 291.126 35.708V40.678C291.126 40.9113 290.925 41.028 290.524 41.028H290.286C289.866 41.028 289.656 40.9113 289.656 40.678V35.918C289.656 35.1807 289.371 34.812 288.802 34.812C288.578 34.812 288.368 34.8867 288.172 35.036C287.976 35.1853 287.813 35.386 287.682 35.638V40.678C287.682 40.9113 287.481 41.028 287.08 41.028H286.828Z" fill="#642A75"/>
<path d="M2.884 41.112C2.42667 41.112 1.974 41.0467 1.526 40.916C1.078 40.776 0.751333 40.5893 0.546 40.356C0.424667 40.188 0.364 40.0247 0.364 39.866C0.364 39.6047 0.434 39.3387 0.574 39.068C0.714 38.7973 0.868 38.662 1.036 38.662C1.11067 38.662 1.22733 38.7087 1.386 38.802C1.554 38.8953 1.67533 38.9607 1.75 38.998C2.114 39.1847 2.436 39.278 2.716 39.278C3.01467 39.278 3.276 39.208 3.5 39.068C3.724 38.928 3.836 38.69 3.836 38.354C3.836 37.9993 3.72867 37.724 3.514 37.528C3.29933 37.3227 2.96333 37.0987 2.506 36.856C1.806 36.4547 1.29267 36.0393 0.966 35.61C0.648667 35.1807 0.49 34.6113 0.49 33.902C0.49 33.3327 0.616 32.838 0.868 32.418C1.12 31.9887 1.46533 31.662 1.904 31.438C2.352 31.2047 2.86067 31.088 3.43 31.088C3.74733 31.088 4.08333 31.1393 4.438 31.242C4.79267 31.3353 5.068 31.452 5.264 31.592C5.432 31.7133 5.516 31.8767 5.516 32.082C5.516 32.3247 5.46 32.5813 5.348 32.852C5.24533 33.1227 5.11467 33.258 4.956 33.258C4.88133 33.258 4.746 33.2207 4.55 33.146C4.186 33.006 3.88267 32.936 3.64 32.936C3.248 32.936 2.97733 33.02 2.828 33.188C2.688 33.356 2.618 33.5473 2.618 33.762C2.618 34.098 2.70667 34.3547 2.884 34.532C3.06133 34.7 3.346 34.8867 3.738 35.092C3.822 35.1293 3.948 35.1947 4.116 35.288C4.76 35.6613 5.222 36.0627 5.502 36.492C5.79133 36.9213 5.936 37.486 5.936 38.186C5.936 38.7087 5.824 39.194 5.6 39.642C5.376 40.0807 5.03533 40.4353 4.578 40.706C4.12067 40.9767 3.556 41.112 2.884 41.112ZM8.67333 41.112C8.11333 41.112 7.67933 40.9347 7.37133 40.58C7.07266 40.216 6.92333 39.6653 6.92333 38.928V35.316H6.76933C6.61999 35.316 6.51266 35.26 6.44733 35.148C6.38199 35.036 6.34933 34.8587 6.34933 34.616V34.378C6.34933 34.1353 6.38199 33.958 6.44733 33.846C6.51266 33.734 6.61999 33.678 6.76933 33.678H6.92333L7.10533 32.348C7.15199 32.0493 7.40399 31.9 7.86133 31.9H8.29533C8.76199 31.9 8.99533 32.0493 8.99533 32.348V33.678H9.51333C9.66266 33.678 9.76999 33.734 9.83533 33.846C9.90066 33.958 9.93333 34.1353 9.93333 34.378V34.616C9.93333 34.8587 9.90066 35.036 9.83533 35.148C9.76999 35.26 9.66266 35.316 9.51333 35.316H8.99533V38.984C8.99533 39.152 9.01866 39.278 9.06533 39.362C9.12133 39.4367 9.20999 39.474 9.33133 39.474C9.37799 39.474 9.43866 39.4647 9.51333 39.446C9.59733 39.4273 9.66266 39.418 9.70933 39.418C9.82133 39.418 9.91933 39.5533 10.0033 39.824C10.0873 40.0853 10.1293 40.2813 10.1293 40.412C10.1293 40.6453 9.97066 40.8227 9.65333 40.944C9.33599 41.056 9.00933 41.112 8.67333 41.112ZM13.7845 41.112C12.7019 41.112 11.9039 40.7993 11.3905 40.174C10.8772 39.5393 10.6205 38.6107 10.6205 37.388C10.6205 36.0067 10.8725 35.0267 11.3765 34.448C11.8899 33.86 12.6085 33.566 13.5325 33.566C14.4472 33.566 15.1099 33.888 15.5205 34.532C15.9312 35.176 16.1365 36.1093 16.1365 37.332C16.1365 37.444 16.0385 37.612 15.8425 37.836C15.6559 38.0507 15.5159 38.158 15.4225 38.158H12.7625C12.7812 38.634 12.8885 38.9747 13.0845 39.18C13.2805 39.376 13.5465 39.474 13.8825 39.474C14.0879 39.474 14.2745 39.446 14.4425 39.39C14.6105 39.334 14.7739 39.2687 14.9325 39.194C15.0912 39.11 15.1892 39.068 15.2265 39.068C15.3199 39.068 15.4225 39.138 15.5345 39.278C15.6559 39.4087 15.7539 39.5627 15.8285 39.74C15.9125 39.908 15.9545 40.0387 15.9545 40.132C15.9545 40.3467 15.8285 40.5287 15.5765 40.678C15.3245 40.818 15.0259 40.9253 14.6805 41C14.3445 41.0747 14.0459 41.112 13.7845 41.112ZM14.2465 36.912C14.2465 36.2493 14.1905 35.778 14.0785 35.498C13.9665 35.2087 13.7799 35.064 13.5185 35.064C13.2665 35.064 13.0705 35.1993 12.9305 35.47C12.7999 35.7407 12.7159 36.2213 12.6785 36.912H14.2465ZM18.07 43.884C17.51 43.884 17.23 43.7347 17.23 43.436V36.142C17.23 35.7127 17.216 35.3907 17.188 35.176C17.1693 34.952 17.1413 34.7047 17.104 34.434C17.076 34.3033 17.062 34.2053 17.062 34.14C17.062 33.9907 17.2486 33.8787 17.622 33.804C18.0046 33.7293 18.3406 33.692 18.63 33.692C18.8166 33.692 18.9426 33.7667 19.008 33.916C19.0826 34.0653 19.148 34.2753 19.204 34.546C19.344 34.2567 19.5446 34.0233 19.806 33.846C20.0673 33.6593 20.3613 33.566 20.688 33.566C21.0986 33.566 21.458 33.7153 21.766 34.014C22.0833 34.3033 22.3306 34.7373 22.508 35.316C22.6946 35.8853 22.788 36.5713 22.788 37.374C22.788 38.5687 22.5826 39.4927 22.172 40.146C21.7613 40.79 21.1873 41.112 20.45 41.112C19.9926 41.112 19.61 40.9767 19.302 40.706V43.436C19.302 43.7347 19.022 43.884 18.462 43.884H18.07ZM19.876 39.474C20.156 39.474 20.3613 39.3107 20.492 38.984C20.6226 38.648 20.688 38.0973 20.688 37.332C20.688 36.604 20.632 36.0767 20.52 35.75C20.408 35.4233 20.2306 35.26 19.988 35.26C19.7173 35.26 19.4886 35.4467 19.302 35.82V39.278C19.4886 39.4087 19.68 39.474 19.876 39.474ZM25.7993 41C25.7059 41 25.6173 40.8553 25.5333 40.566C25.4493 40.2673 25.4073 40.0013 25.4073 39.768C25.4073 39.6653 25.4213 39.5953 25.4493 39.558L28.5013 35.12C28.6973 34.8307 28.8373 34.5787 28.9213 34.364C29.0053 34.14 29.0473 33.9253 29.0473 33.72C29.0473 33.3933 28.9446 33.1507 28.7393 32.992C28.5433 32.824 28.2773 32.74 27.9413 32.74C27.7079 32.74 27.4886 32.782 27.2833 32.866C27.0873 32.9407 26.8866 33.0433 26.6813 33.174C26.5039 33.286 26.3826 33.342 26.3173 33.342C26.1119 33.342 25.9253 33.23 25.7573 33.006C25.5986 32.782 25.5193 32.572 25.5193 32.376C25.5193 31.984 25.8039 31.6713 26.3733 31.438C26.9426 31.2047 27.5726 31.088 28.2633 31.088C29.1873 31.088 29.8966 31.326 30.3913 31.802C30.8953 32.2687 31.1473 32.8847 31.1473 33.65C31.1473 34.378 30.8999 35.092 30.4053 35.792L27.9833 39.362H30.7973C30.9466 39.362 31.0539 39.418 31.1193 39.53C31.1846 39.642 31.2173 39.8193 31.2173 40.062V40.3C31.2173 40.5427 31.1846 40.72 31.1193 40.832C31.0539 40.944 30.9466 41 30.7973 41H25.7993ZM32.225 42.078C32.057 42.078 31.9357 42.0593 31.861 42.022C31.7957 41.994 31.763 41.938 31.763 41.854C31.763 41.826 31.8237 41.616 31.945 41.224L35.221 31.452C35.2677 31.3493 35.333 31.2747 35.417 31.228C35.5104 31.1813 35.641 31.158 35.809 31.158H35.907C36.075 31.158 36.1917 31.1767 36.257 31.214C36.3224 31.242 36.355 31.2933 36.355 31.368C36.355 31.4147 36.3084 31.5687 36.215 31.83L32.869 41.798C32.8317 41.9007 32.771 41.9707 32.687 42.008C32.603 42.0547 32.4724 42.078 32.295 42.078H32.225ZM39.2902 41.098C38.8796 41.098 38.4782 41.0607 38.0862 40.986C37.7036 40.902 37.3909 40.79 37.1482 40.65C36.9056 40.51 36.7842 40.356 36.7842 40.188C36.7842 40.0573 36.8496 39.894 36.9802 39.698C37.1202 39.4927 37.2369 39.39 37.3302 39.39C37.3769 39.39 37.4842 39.432 37.6522 39.516C37.8856 39.6373 38.1142 39.7353 38.3382 39.81C38.5622 39.8753 38.8236 39.908 39.1222 39.908C39.5889 39.908 39.9949 39.768 40.3402 39.488C40.6856 39.1987 40.8582 38.7413 40.8582 38.116C40.8582 37.5093 40.6996 37.0753 40.3822 36.814C40.0649 36.5433 39.6029 36.408 38.9962 36.408H38.4502C38.3382 36.408 38.2542 36.3707 38.1982 36.296C38.1516 36.212 38.1282 36.0813 38.1282 35.904V35.722C38.1282 35.5447 38.1516 35.4187 38.1982 35.344C38.2542 35.2693 38.3382 35.232 38.4502 35.232H38.9122C39.2856 35.232 39.5936 35.148 39.8362 34.98C40.0882 34.8027 40.2702 34.588 40.3822 34.336C40.4942 34.084 40.5502 33.8367 40.5502 33.594C40.5502 33.2393 40.4382 32.936 40.2142 32.684C39.9996 32.432 39.6402 32.306 39.1362 32.306C38.8562 32.306 38.6182 32.3387 38.4222 32.404C38.2356 32.4693 38.0629 32.544 37.9042 32.628C37.7456 32.712 37.6476 32.754 37.6102 32.754C37.5169 32.754 37.4049 32.6513 37.2742 32.446C37.1436 32.2407 37.0782 32.068 37.0782 31.928C37.0782 31.6947 37.3209 31.4987 37.8062 31.34C38.3009 31.1813 38.8096 31.102 39.3322 31.102C40.1536 31.102 40.8022 31.3167 41.2782 31.746C41.7636 32.1753 42.0062 32.768 42.0062 33.524C42.0062 34.028 41.8756 34.448 41.6142 34.784C41.3622 35.12 41.0262 35.372 40.6062 35.54V35.596C41.1009 35.7453 41.5116 36.044 41.8382 36.492C42.1649 36.94 42.3282 37.5047 42.3282 38.186C42.3282 39.1007 42.0436 39.8147 41.4742 40.328C40.9142 40.8413 40.1862 41.098 39.2902 41.098Z" fill="#642A75"/>
<defs>
<filter id="filter0_d_1001_69" x="132" y="0" width="28" height="28" filterUnits="userSpaceOnUse" color-interpolation-filters="sRGB">
<feFlood flood-opacity="0" result="BackgroundImageFix"/>
<feColorMatrix in="SourceAlpha" type="matrix" values="0 0 0 0 0 0 0 0 0 0 0 0 0 0 0 0 0 0 127 0" result="hardAlpha"/>
<feOffset dy="1"/>
<feGaussianBlur stdDeviation="2"/>
<feComposite in2="hardAlpha" operator="out"/>
<feColorMatrix type="matrix" values="0 0 0 0 0.392157 0 0 0 0 0.164706 0 0 0 0 0.458824 0 0 0 0.6 0"/>
<feBlend mode="normal" in2="BackgroundImageFix" result="effect1_dropShadow_1001_69"/>
<feBlend mode="normal" in="SourceGraphic" in2="effect1_dropShadow_1001_69" result="shape"/>
</filter>
<linearGradient id="paint0_linear_1001_69" x1="0" y1="13" x2="146.5" y2="13" gradientUnits="userSpaceOnUse">
<stop stop-color="#642A75"/>
<stop offset="1" stop-color="#642A75"/>
</linearGradient>
</defs>
</svg>
