<svg width="298" height="47" viewBox="0 0 298 47" fill="none" xmlns="http://www.w3.org/2000/svg">
<rect y="5" width="292" height="16" rx="8" fill="#F5EBEF"/>
<rect y="5" width="292" height="16" rx="8" fill="#642A75"/>
<circle cx="8" cy="13" r="5" fill="white"/>
<circle cx="146" cy="13" r="5" fill="white"/>
<g filter="url(#filter0_d_1001_53)">
<circle cx="284" cy="13" r="8" fill="#642A75"/>
<circle cx="284" cy="13" r="9" stroke="white" stroke-width="2"/>
</g>
<path d="M205.982 41.098C204.722 41.098 203.793 40.692 203.196 39.88C202.608 39.068 202.314 37.8033 202.314 36.086C202.314 34.406 202.617 33.1553 203.224 32.334C203.831 31.5127 204.759 31.102 206.01 31.102C206.253 31.102 206.495 31.1253 206.738 31.172C206.981 31.2187 207.191 31.2747 207.368 31.34C207.48 31.3773 207.555 31.4333 207.592 31.508C207.639 31.5827 207.662 31.6807 207.662 31.802C207.653 32.026 207.601 32.25 207.508 32.474C207.424 32.6887 207.307 32.7587 207.158 32.684C206.803 32.516 206.43 32.432 206.038 32.432C205.301 32.432 204.755 32.7307 204.4 33.328C204.055 33.916 203.882 34.8353 203.882 36.086C203.882 37.3367 204.055 38.2653 204.4 38.872C204.755 39.4693 205.301 39.768 206.038 39.768C206.467 39.768 206.869 39.67 207.242 39.474C207.298 39.4553 207.34 39.446 207.368 39.446C207.508 39.446 207.615 39.5393 207.69 39.726C207.774 39.9127 207.816 40.1133 207.816 40.328C207.816 40.552 207.695 40.7153 207.452 40.818C207.284 40.8927 207.069 40.958 206.808 41.014C206.547 41.07 206.271 41.098 205.982 41.098ZM211.442 41.098C210.546 41.098 209.864 40.7807 209.398 40.146C208.931 39.502 208.698 38.5733 208.698 37.36C208.698 36.1467 208.931 35.2133 209.398 34.56C209.874 33.9067 210.555 33.58 211.442 33.58C212.338 33.58 213.014 33.9067 213.472 34.56C213.938 35.204 214.172 36.1373 214.172 37.36C214.172 38.5733 213.938 39.502 213.472 40.146C213.014 40.7807 212.338 41.098 211.442 41.098ZM211.428 39.908C211.866 39.908 212.184 39.7027 212.38 39.292C212.585 38.8813 212.688 38.2327 212.688 37.346C212.688 36.45 212.585 35.7967 212.38 35.386C212.184 34.9753 211.866 34.77 211.428 34.77C210.998 34.77 210.686 34.9753 210.49 35.386C210.294 35.7967 210.196 36.45 210.196 37.346C210.196 38.242 210.294 38.8953 210.49 39.306C210.686 39.7073 210.998 39.908 211.428 39.908ZM216.35 41.028C215.948 41.028 215.748 40.9113 215.748 40.678V35.876C215.748 35.26 215.724 34.812 215.678 34.532C215.631 34.252 215.608 34.0933 215.608 34.056C215.608 33.9347 215.734 33.846 215.986 33.79C216.247 33.7247 216.466 33.692 216.644 33.692C216.793 33.692 216.891 33.7527 216.938 33.874C216.994 33.986 217.036 34.126 217.064 34.294C217.092 34.4527 217.11 34.5693 217.12 34.644C217.334 34.3173 217.596 34.0607 217.904 33.874C218.212 33.678 218.548 33.58 218.912 33.58C219.472 33.58 219.901 33.7667 220.2 34.14C220.498 34.5133 220.648 35.036 220.648 35.708V40.678C220.648 40.9113 220.447 41.028 220.046 41.028H219.808C219.388 41.028 219.178 40.9113 219.178 40.678V35.918C219.178 35.1807 218.893 34.812 218.324 34.812C218.1 34.812 217.89 34.8867 217.694 35.036C217.498 35.1853 217.334 35.386 217.204 35.638V40.678C217.204 40.9113 217.003 41.028 216.602 41.028H216.35ZM223.397 41.028C222.968 41.028 222.753 40.9113 222.753 40.678V34.868H222.417C222.305 34.868 222.221 34.8307 222.165 34.756C222.119 34.672 222.095 34.5413 222.095 34.364V34.182C222.095 34.0047 222.119 33.8787 222.165 33.804C222.221 33.72 222.305 33.678 222.417 33.678H222.753V32.32C222.753 31.62 222.917 31.1253 223.243 30.836C223.579 30.5467 223.985 30.402 224.461 30.402C224.723 30.402 224.965 30.444 225.189 30.528C225.423 30.612 225.539 30.738 225.539 30.906C225.539 31.0087 225.502 31.1627 225.427 31.368C225.362 31.5733 225.283 31.676 225.189 31.676C225.161 31.676 225.101 31.662 225.007 31.634C224.914 31.606 224.816 31.592 224.713 31.592C224.536 31.592 224.401 31.648 224.307 31.76C224.223 31.872 224.181 32.082 224.181 32.39V33.678H227.415C227.845 33.678 228.059 33.7853 228.059 34V40.678C228.059 40.9113 227.845 41.028 227.415 41.028H227.261C226.841 41.028 226.631 40.9113 226.631 40.678V34.868H224.181V40.678C224.181 40.9113 223.967 41.028 223.537 41.028H223.397ZM227.317 32.754C226.832 32.754 226.589 32.6373 226.589 32.404V31.494C226.589 31.2607 226.832 31.144 227.317 31.144C227.812 31.144 228.059 31.2607 228.059 31.494V32.404C228.059 32.6373 227.812 32.754 227.317 32.754ZM230.776 41.028C230.347 41.028 230.132 40.9113 230.132 40.678V35.876C230.132 35.26 230.104 34.812 230.048 34.532C229.992 34.252 229.964 34.0933 229.964 34.056C229.964 33.9253 230.081 33.832 230.314 33.776C230.547 33.72 230.762 33.692 230.958 33.692C231.098 33.692 231.196 33.762 231.252 33.902C231.317 34.0327 231.364 34.1773 231.392 34.336C231.429 34.4853 231.453 34.588 231.462 34.644C231.873 33.9347 232.335 33.58 232.848 33.58C233.324 33.58 233.562 33.7853 233.562 34.196C233.562 34.364 233.529 34.5553 233.464 34.77C233.408 34.9847 233.338 35.092 233.254 35.092C233.207 35.092 233.119 35.0687 232.988 35.022C232.867 34.9753 232.731 34.952 232.582 34.952C232.358 34.952 232.148 35.0453 231.952 35.232C231.756 35.4187 231.625 35.596 231.56 35.764V40.678C231.56 40.9113 231.35 41.028 230.93 41.028H230.776ZM241.289 33.58C241.802 33.58 242.213 33.762 242.521 34.126C242.838 34.49 242.997 35.036 242.997 35.764V40.678C242.997 40.9113 242.796 41.028 242.395 41.028H242.157C241.746 41.028 241.541 40.9113 241.541 40.678V35.974C241.541 35.1993 241.265 34.812 240.715 34.812C240.481 34.812 240.267 34.8913 240.071 35.05C239.884 35.1993 239.735 35.386 239.623 35.61V35.778V40.678C239.623 40.9113 239.422 41.028 239.021 41.028H238.769C238.358 41.028 238.153 40.9113 238.153 40.678V35.974C238.153 35.1993 237.877 34.812 237.327 34.812C237.065 34.812 236.837 34.9007 236.641 35.078C236.445 35.2553 236.309 35.442 236.235 35.638V40.678C236.235 40.9113 236.034 41.028 235.633 41.028H235.381C234.979 41.028 234.779 40.9113 234.779 40.678V35.876C234.779 35.26 234.755 34.812 234.709 34.532C234.662 34.252 234.639 34.0933 234.639 34.056C234.639 33.9347 234.765 33.846 235.017 33.79C235.278 33.7247 235.497 33.692 235.675 33.692C235.824 33.692 235.922 33.7527 235.969 33.874C236.025 33.986 236.067 34.126 236.095 34.294C236.123 34.4527 236.141 34.5693 236.151 34.644C236.347 34.3267 236.594 34.07 236.893 33.874C237.201 33.678 237.537 33.58 237.901 33.58C238.265 33.58 238.582 33.6687 238.853 33.846C239.123 34.014 239.324 34.2753 239.455 34.63C239.669 34.322 239.935 34.07 240.253 33.874C240.579 33.678 240.925 33.58 241.289 33.58ZM247.357 41.028C246.946 41.028 246.741 40.9113 246.741 40.678V31.662C246.741 31.5033 246.774 31.3867 246.839 31.312C246.914 31.2373 247.026 31.2 247.175 31.2H249.513C250.194 31.2 250.801 31.4007 251.333 31.802C251.865 32.2033 252.131 32.95 252.131 34.042C252.131 34.826 251.977 35.4373 251.669 35.876C251.37 36.3053 251.03 36.5947 250.647 36.744C250.264 36.8933 249.924 36.968 249.625 36.968H248.253V40.678C248.253 40.9113 248.048 41.028 247.637 41.028H247.357ZM249.513 35.694C249.793 35.694 250.045 35.5727 250.269 35.33C250.493 35.0873 250.605 34.658 250.605 34.042C250.605 33.4633 250.488 33.062 250.255 32.838C250.031 32.6047 249.76 32.488 249.443 32.488H248.253V35.694H249.513ZM254.944 41.098C254.318 41.098 253.824 40.9067 253.46 40.524C253.105 40.1413 252.928 39.6047 252.928 38.914C252.928 38.0087 253.254 37.3553 253.908 36.954C254.561 36.5527 255.443 36.3473 256.554 36.338V35.806C256.554 35.498 256.465 35.2507 256.288 35.064C256.11 34.868 255.826 34.77 255.434 34.77C255.144 34.77 254.888 34.8073 254.664 34.882C254.449 34.9473 254.253 35.0267 254.076 35.12C253.898 35.204 253.791 35.246 253.754 35.246C253.651 35.246 253.53 35.1387 253.39 34.924C253.259 34.7093 253.194 34.546 253.194 34.434C253.194 34.3033 253.301 34.1727 253.516 34.042C253.74 33.9113 254.029 33.804 254.384 33.72C254.738 33.6267 255.107 33.58 255.49 33.58C256.302 33.58 256.918 33.776 257.338 34.168C257.767 34.56 257.982 35.1013 257.982 35.792V38.816C257.982 39.4413 258.01 39.894 258.066 40.174C258.122 40.454 258.15 40.6127 258.15 40.65C258.15 40.7807 258.033 40.874 257.8 40.93C257.576 40.986 257.366 41.014 257.17 41.014C257.03 41.014 256.927 40.9533 256.862 40.832C256.796 40.7013 256.731 40.496 256.666 40.216C256.208 40.804 255.634 41.098 254.944 41.098ZM255.294 39.866C255.816 39.866 256.236 39.6327 256.554 39.166V37.416C255.872 37.4253 255.331 37.5327 254.93 37.738C254.538 37.934 254.342 38.3073 254.342 38.858C254.342 39.53 254.659 39.866 255.294 39.866ZM263.868 33.65C264.269 33.65 264.47 33.734 264.47 33.902C264.47 33.9393 264.456 34.0233 264.428 34.154L261.796 43.604C261.73 43.8 261.52 43.898 261.166 43.898H260.886C260.522 43.898 260.34 43.8187 260.34 43.66C260.34 43.604 260.354 43.5247 260.382 43.422L261.236 40.608L259.276 34.182C259.238 34.07 259.22 33.9813 259.22 33.916C259.22 33.7387 259.416 33.65 259.808 33.65H260.13C260.466 33.65 260.652 33.734 260.69 33.902L261.572 37.416C261.618 37.6027 261.707 38.0227 261.838 38.676H261.908L262.02 38.144L262.16 37.416L263.042 33.888C263.079 33.7293 263.275 33.65 263.63 33.65H263.868ZM272.133 33.58C272.646 33.58 273.057 33.762 273.365 34.126C273.682 34.49 273.841 35.036 273.841 35.764V40.678C273.841 40.9113 273.64 41.028 273.239 41.028H273.001C272.59 41.028 272.385 40.9113 272.385 40.678V35.974C272.385 35.1993 272.109 34.812 271.559 34.812C271.325 34.812 271.111 34.8913 270.915 35.05C270.728 35.1993 270.579 35.386 270.467 35.61V35.778V40.678C270.467 40.9113 270.266 41.028 269.865 41.028H269.613C269.202 41.028 268.997 40.9113 268.997 40.678V35.974C268.997 35.1993 268.721 34.812 268.171 34.812C267.909 34.812 267.681 34.9007 267.485 35.078C267.289 35.2553 267.153 35.442 267.079 35.638V40.678C267.079 40.9113 266.878 41.028 266.477 41.028H266.225C265.823 41.028 265.623 40.9113 265.623 40.678V35.876C265.623 35.26 265.599 34.812 265.553 34.532C265.506 34.252 265.483 34.0933 265.483 34.056C265.483 33.9347 265.609 33.846 265.861 33.79C266.122 33.7247 266.341 33.692 266.519 33.692C266.668 33.692 266.766 33.7527 266.813 33.874C266.869 33.986 266.911 34.126 266.939 34.294C266.967 34.4527 266.985 34.5693 266.995 34.644C267.191 34.3267 267.438 34.07 267.737 33.874C268.045 33.678 268.381 33.58 268.745 33.58C269.109 33.58 269.426 33.6687 269.697 33.846C269.967 34.014 270.168 34.2753 270.299 34.63C270.513 34.322 270.779 34.07 271.097 33.874C271.423 33.678 271.769 33.58 272.133 33.58ZM278.317 41.098C277.309 41.098 276.557 40.79 276.063 40.174C275.568 39.558 275.321 38.6293 275.321 37.388C275.321 36.1093 275.559 35.1573 276.035 34.532C276.52 33.8973 277.215 33.58 278.121 33.58C278.961 33.58 279.586 33.8973 279.997 34.532C280.417 35.1573 280.627 36.072 280.627 37.276C280.627 37.3693 280.557 37.5 280.417 37.668C280.277 37.836 280.165 37.92 280.081 37.92H276.833C276.87 38.62 277.005 39.1287 277.239 39.446C277.481 39.754 277.845 39.908 278.331 39.908C278.639 39.908 278.895 39.866 279.101 39.782C279.306 39.698 279.479 39.6093 279.619 39.516C279.768 39.4133 279.857 39.362 279.885 39.362C279.997 39.362 280.118 39.4693 280.249 39.684C280.379 39.8987 280.445 40.062 280.445 40.174C280.445 40.314 280.337 40.4587 280.123 40.608C279.917 40.748 279.647 40.8647 279.311 40.958C278.984 41.0513 278.653 41.098 278.317 41.098ZM279.185 36.842C279.185 36.1327 279.096 35.6053 278.919 35.26C278.741 34.9147 278.466 34.742 278.093 34.742C277.691 34.742 277.388 34.91 277.183 35.246C276.977 35.582 276.856 36.114 276.819 36.842H279.185ZM282.658 41.028C282.257 41.028 282.056 40.9113 282.056 40.678V35.876C282.056 35.26 282.033 34.812 281.986 34.532C281.94 34.252 281.916 34.0933 281.916 34.056C281.916 33.9347 282.042 33.846 282.294 33.79C282.556 33.7247 282.775 33.692 282.952 33.692C283.102 33.692 283.2 33.7527 283.246 33.874C283.302 33.986 283.344 34.126 283.372 34.294C283.4 34.4527 283.419 34.5693 283.428 34.644C283.643 34.3173 283.904 34.0607 284.212 33.874C284.52 33.678 284.856 33.58 285.22 33.58C285.78 33.58 286.21 33.7667 286.508 34.14C286.807 34.5133 286.956 35.036 286.956 35.708V40.678C286.956 40.9113 286.756 41.028 286.354 41.028H286.116C285.696 41.028 285.486 40.9113 285.486 40.678V35.918C285.486 35.1807 285.202 34.812 284.632 34.812C284.408 34.812 284.198 34.8867 284.002 35.036C283.806 35.1853 283.643 35.386 283.512 35.638V40.678C283.512 40.9113 283.312 41.028 282.91 41.028H282.658ZM290.588 41.098C290.14 41.098 289.757 40.958 289.44 40.678C289.123 40.3887 288.964 39.9127 288.964 39.25V34.868H288.6C288.488 34.868 288.404 34.8307 288.348 34.756C288.301 34.672 288.278 34.5413 288.278 34.364V34.182C288.278 34.0047 288.301 33.8787 288.348 33.804C288.404 33.72 288.488 33.678 288.6 33.678H288.964L289.146 32.25C289.165 32.0167 289.342 31.9 289.678 31.9H289.902C290.238 31.9 290.406 32.0167 290.406 32.25V33.678H291.218C291.33 33.678 291.409 33.72 291.456 33.804C291.503 33.8787 291.526 34.0047 291.526 34.182V34.364C291.526 34.5413 291.503 34.672 291.456 34.756C291.409 34.8307 291.33 34.868 291.218 34.868H290.406V39.138C290.406 39.4273 290.448 39.628 290.532 39.74C290.616 39.852 290.737 39.908 290.896 39.908C290.989 39.908 291.078 39.8987 291.162 39.88C291.246 39.852 291.307 39.838 291.344 39.838C291.437 39.838 291.512 39.9407 291.568 40.146C291.633 40.342 291.666 40.496 291.666 40.608C291.666 40.7853 291.549 40.9113 291.316 40.986C291.083 41.0607 290.84 41.098 290.588 41.098Z" fill="#642A75"/>
<path d="M2.884 41.112C2.42667 41.112 1.974 41.0467 1.526 40.916C1.078 40.776 0.751333 40.5893 0.546 40.356C0.424667 40.188 0.364 40.0247 0.364 39.866C0.364 39.6047 0.434 39.3387 0.574 39.068C0.714 38.7973 0.868 38.662 1.036 38.662C1.11067 38.662 1.22733 38.7087 1.386 38.802C1.554 38.8953 1.67533 38.9607 1.75 38.998C2.114 39.1847 2.436 39.278 2.716 39.278C3.01467 39.278 3.276 39.208 3.5 39.068C3.724 38.928 3.836 38.69 3.836 38.354C3.836 37.9993 3.72867 37.724 3.514 37.528C3.29933 37.3227 2.96333 37.0987 2.506 36.856C1.806 36.4547 1.29267 36.0393 0.966 35.61C0.648667 35.1807 0.49 34.6113 0.49 33.902C0.49 33.3327 0.616 32.838 0.868 32.418C1.12 31.9887 1.46533 31.662 1.904 31.438C2.352 31.2047 2.86067 31.088 3.43 31.088C3.74733 31.088 4.08333 31.1393 4.438 31.242C4.79267 31.3353 5.068 31.452 5.264 31.592C5.432 31.7133 5.516 31.8767 5.516 32.082C5.516 32.3247 5.46 32.5813 5.348 32.852C5.24533 33.1227 5.11467 33.258 4.956 33.258C4.88133 33.258 4.746 33.2207 4.55 33.146C4.186 33.006 3.88267 32.936 3.64 32.936C3.248 32.936 2.97733 33.02 2.828 33.188C2.688 33.356 2.618 33.5473 2.618 33.762C2.618 34.098 2.70667 34.3547 2.884 34.532C3.06133 34.7 3.346 34.8867 3.738 35.092C3.822 35.1293 3.948 35.1947 4.116 35.288C4.76 35.6613 5.222 36.0627 5.502 36.492C5.79133 36.9213 5.936 37.486 5.936 38.186C5.936 38.7087 5.824 39.194 5.6 39.642C5.376 40.0807 5.03533 40.4353 4.578 40.706C4.12067 40.9767 3.556 41.112 2.884 41.112ZM8.67333 41.112C8.11333 41.112 7.67933 40.9347 7.37133 40.58C7.07266 40.216 6.92333 39.6653 6.92333 38.928V35.316H6.76933C6.61999 35.316 6.51266 35.26 6.44733 35.148C6.38199 35.036 6.34933 34.8587 6.34933 34.616V34.378C6.34933 34.1353 6.38199 33.958 6.44733 33.846C6.51266 33.734 6.61999 33.678 6.76933 33.678H6.92333L7.10533 32.348C7.15199 32.0493 7.40399 31.9 7.86133 31.9H8.29533C8.76199 31.9 8.99533 32.0493 8.99533 32.348V33.678H9.51333C9.66266 33.678 9.76999 33.734 9.83533 33.846C9.90066 33.958 9.93333 34.1353 9.93333 34.378V34.616C9.93333 34.8587 9.90066 35.036 9.83533 35.148C9.76999 35.26 9.66266 35.316 9.51333 35.316H8.99533V38.984C8.99533 39.152 9.01866 39.278 9.06533 39.362C9.12133 39.4367 9.20999 39.474 9.33133 39.474C9.37799 39.474 9.43866 39.4647 9.51333 39.446C9.59733 39.4273 9.66266 39.418 9.70933 39.418C9.82133 39.418 9.91933 39.5533 10.0033 39.824C10.0873 40.0853 10.1293 40.2813 10.1293 40.412C10.1293 40.6453 9.97066 40.8227 9.65333 40.944C9.33599 41.056 9.00933 41.112 8.67333 41.112ZM13.7845 41.112C12.7019 41.112 11.9039 40.7993 11.3905 40.174C10.8772 39.5393 10.6205 38.6107 10.6205 37.388C10.6205 36.0067 10.8725 35.0267 11.3765 34.448C11.8899 33.86 12.6085 33.566 13.5325 33.566C14.4472 33.566 15.1099 33.888 15.5205 34.532C15.9312 35.176 16.1365 36.1093 16.1365 37.332C16.1365 37.444 16.0385 37.612 15.8425 37.836C15.6559 38.0507 15.5159 38.158 15.4225 38.158H12.7625C12.7812 38.634 12.8885 38.9747 13.0845 39.18C13.2805 39.376 13.5465 39.474 13.8825 39.474C14.0879 39.474 14.2745 39.446 14.4425 39.39C14.6105 39.334 14.7739 39.2687 14.9325 39.194C15.0912 39.11 15.1892 39.068 15.2265 39.068C15.3199 39.068 15.4225 39.138 15.5345 39.278C15.6559 39.4087 15.7539 39.5627 15.8285 39.74C15.9125 39.908 15.9545 40.0387 15.9545 40.132C15.9545 40.3467 15.8285 40.5287 15.5765 40.678C15.3245 40.818 15.0259 40.9253 14.6805 41C14.3445 41.0747 14.0459 41.112 13.7845 41.112ZM14.2465 36.912C14.2465 36.2493 14.1905 35.778 14.0785 35.498C13.9665 35.2087 13.7799 35.064 13.5185 35.064C13.2665 35.064 13.0705 35.1993 12.9305 35.47C12.7999 35.7407 12.7159 36.2213 12.6785 36.912H14.2465ZM18.07 43.884C17.51 43.884 17.23 43.7347 17.23 43.436V36.142C17.23 35.7127 17.216 35.3907 17.188 35.176C17.1693 34.952 17.1413 34.7047 17.104 34.434C17.076 34.3033 17.062 34.2053 17.062 34.14C17.062 33.9907 17.2486 33.8787 17.622 33.804C18.0046 33.7293 18.3406 33.692 18.63 33.692C18.8166 33.692 18.9426 33.7667 19.008 33.916C19.0826 34.0653 19.148 34.2753 19.204 34.546C19.344 34.2567 19.5446 34.0233 19.806 33.846C20.0673 33.6593 20.3613 33.566 20.688 33.566C21.0986 33.566 21.458 33.7153 21.766 34.014C22.0833 34.3033 22.3306 34.7373 22.508 35.316C22.6946 35.8853 22.788 36.5713 22.788 37.374C22.788 38.5687 22.5826 39.4927 22.172 40.146C21.7613 40.79 21.1873 41.112 20.45 41.112C19.9926 41.112 19.61 40.9767 19.302 40.706V43.436C19.302 43.7347 19.022 43.884 18.462 43.884H18.07ZM19.876 39.474C20.156 39.474 20.3613 39.3107 20.492 38.984C20.6226 38.648 20.688 38.0973 20.688 37.332C20.688 36.604 20.632 36.0767 20.52 35.75C20.408 35.4233 20.2306 35.26 19.988 35.26C19.7173 35.26 19.4886 35.4467 19.302 35.82V39.278C19.4886 39.4087 19.68 39.474 19.876 39.474ZM27.9413 41.112C27.3346 41.112 26.7606 41.0187 26.2193 40.832C25.6779 40.6453 25.4073 40.356 25.4073 39.964C25.4073 39.8707 25.4446 39.74 25.5193 39.572C25.5939 39.3947 25.6826 39.2407 25.7853 39.11C25.8879 38.97 25.9906 38.9 26.0933 38.9C26.1399 38.9 26.2426 38.9467 26.4013 39.04C26.6159 39.1707 26.8259 39.278 27.0313 39.362C27.2459 39.4367 27.4886 39.474 27.7593 39.474C28.1513 39.474 28.4639 39.3573 28.6973 39.124C28.9306 38.8813 29.0473 38.5453 29.0473 38.116C29.0473 37.64 28.9259 37.2853 28.6833 37.052C28.4406 36.8093 28.0486 36.688 27.5073 36.688H27.0173C26.8679 36.688 26.7606 36.632 26.6953 36.52C26.6299 36.408 26.5973 36.2307 26.5973 35.988V35.736C26.5973 35.4933 26.6299 35.316 26.6953 35.204C26.7606 35.092 26.8679 35.036 27.0173 35.036H27.3813C27.8013 35.036 28.1279 34.9333 28.3613 34.728C28.6039 34.5133 28.7253 34.2287 28.7253 33.874C28.7253 33.5193 28.6366 33.244 28.4593 33.048C28.2819 32.8427 28.0253 32.74 27.6893 32.74C27.4466 32.74 27.2459 32.7727 27.0873 32.838C26.9379 32.894 26.7979 32.964 26.6673 33.048C26.5366 33.132 26.4479 33.174 26.4013 33.174C26.2613 33.174 26.1073 33.048 25.9393 32.796C25.7806 32.5347 25.7013 32.306 25.7013 32.11C25.7013 31.7833 25.9439 31.5313 26.4293 31.354C26.9146 31.1767 27.5026 31.088 28.1933 31.088C28.9959 31.088 29.6353 31.312 30.1113 31.76C30.5873 32.1987 30.8253 32.7913 30.8253 33.538C30.8253 34.014 30.7086 34.434 30.4753 34.798C30.2419 35.1527 29.9246 35.414 29.5233 35.582V35.638C30.0646 35.8433 30.4706 36.1653 30.7413 36.604C31.0119 37.0427 31.1473 37.556 31.1473 38.144C31.1473 39.0773 30.8626 39.8053 30.2933 40.328C29.7239 40.8507 28.9399 41.112 27.9413 41.112ZM32.225 42.078C32.057 42.078 31.9357 42.0593 31.861 42.022C31.7957 41.994 31.763 41.938 31.763 41.854C31.763 41.826 31.8237 41.616 31.945 41.224L35.221 31.452C35.2677 31.3493 35.333 31.2747 35.417 31.228C35.5104 31.1813 35.641 31.158 35.809 31.158H35.907C36.075 31.158 36.1917 31.1767 36.257 31.214C36.3224 31.242 36.355 31.2933 36.355 31.368C36.355 31.4147 36.3084 31.5687 36.215 31.83L32.869 41.798C32.8317 41.9007 32.771 41.9707 32.687 42.008C32.603 42.0547 32.4724 42.078 32.295 42.078H32.225ZM39.2902 41.098C38.8796 41.098 38.4782 41.0607 38.0862 40.986C37.7036 40.902 37.3909 40.79 37.1482 40.65C36.9056 40.51 36.7842 40.356 36.7842 40.188C36.7842 40.0573 36.8496 39.894 36.9802 39.698C37.1202 39.4927 37.2369 39.39 37.3302 39.39C37.3769 39.39 37.4842 39.432 37.6522 39.516C37.8856 39.6373 38.1142 39.7353 38.3382 39.81C38.5622 39.8753 38.8236 39.908 39.1222 39.908C39.5889 39.908 39.9949 39.768 40.3402 39.488C40.6856 39.1987 40.8582 38.7413 40.8582 38.116C40.8582 37.5093 40.6996 37.0753 40.3822 36.814C40.0649 36.5433 39.6029 36.408 38.9962 36.408H38.4502C38.3382 36.408 38.2542 36.3707 38.1982 36.296C38.1516 36.212 38.1282 36.0813 38.1282 35.904V35.722C38.1282 35.5447 38.1516 35.4187 38.1982 35.344C38.2542 35.2693 38.3382 35.232 38.4502 35.232H38.9122C39.2856 35.232 39.5936 35.148 39.8362 34.98C40.0882 34.8027 40.2702 34.588 40.3822 34.336C40.4942 34.084 40.5502 33.8367 40.5502 33.594C40.5502 33.2393 40.4382 32.936 40.2142 32.684C39.9996 32.432 39.6402 32.306 39.1362 32.306C38.8562 32.306 38.6182 32.3387 38.4222 32.404C38.2356 32.4693 38.0629 32.544 37.9042 32.628C37.7456 32.712 37.6476 32.754 37.6102 32.754C37.5169 32.754 37.4049 32.6513 37.2742 32.446C37.1436 32.2407 37.0782 32.068 37.0782 31.928C37.0782 31.6947 37.3209 31.4987 37.8062 31.34C38.3009 31.1813 38.8096 31.102 39.3322 31.102C40.1536 31.102 40.8022 31.3167 41.2782 31.746C41.7636 32.1753 42.0062 32.768 42.0062 33.524C42.0062 34.028 41.8756 34.448 41.6142 34.784C41.3622 35.12 41.0262 35.372 40.6062 35.54V35.596C41.1009 35.7453 41.5116 36.044 41.8382 36.492C42.1649 36.94 42.3282 37.5047 42.3282 38.186C42.3282 39.1007 42.0436 39.8147 41.4742 40.328C40.9142 40.8413 40.1862 41.098 39.2902 41.098Z" fill="#642A75"/>
<defs>
<filter id="filter0_d_1001_53" x="270" y="0" width="28" height="28" filterUnits="userSpaceOnUse" color-interpolation-filters="sRGB">
<feFlood flood-opacity="0" result="BackgroundImageFix"/>
<feColorMatrix in="SourceAlpha" type="matrix" values="0 0 0 0 0 0 0 0 0 0 0 0 0 0 0 0 0 0 127 0" result="hardAlpha"/>
<feOffset dy="1"/>
<feGaussianBlur stdDeviation="2"/>
<feComposite in2="hardAlpha" operator="out"/>
<feColorMatrix type="matrix" values="0 0 0 0 0.392157 0 0 0 0 0.164706 0 0 0 0 0.458824 0 0 0 0.6 0"/>
<feBlend mode="normal" in2="BackgroundImageFix" result="effect1_dropShadow_1001_53"/>
<feBlend mode="normal" in="SourceGraphic" in2="effect1_dropShadow_1001_53" result="shape"/>
</filter>
</defs>
</svg>
