<svg width="292" height="47" viewBox="0 0 292 47" fill="none" xmlns="http://www.w3.org/2000/svg">
<rect y="5" width="292" height="16" rx="8" fill="#F5EBEF"/>
<rect y="5" width="25" height="16" rx="8" fill="#642A75"/>
<g filter="url(#filter0_d_1001_40)">
<circle cx="17" cy="13" r="8" fill="#642A75"/>
<circle cx="17" cy="13" r="9" stroke="white" stroke-width="2"/>
</g>
<circle cx="284" cy="13" r="6" fill="#EDCCD9"/>
<circle cx="146" cy="13" r="6" fill="#EDCCD9"/>
<path d="M247.906 41.084C247.467 41.084 247.052 41.028 246.66 40.916C246.268 40.7947 245.937 40.6267 245.666 40.412C245.61 40.356 245.568 40.3047 245.54 40.258C245.512 40.202 245.498 40.132 245.498 40.048C245.498 39.852 245.54 39.6513 245.624 39.446C245.708 39.2313 245.806 39.124 245.918 39.124C245.965 39.124 246.016 39.1427 246.072 39.18C246.137 39.208 246.189 39.2313 246.226 39.25C246.693 39.5953 247.243 39.768 247.878 39.768C248.307 39.768 248.662 39.6467 248.942 39.404C249.222 39.1613 249.362 38.816 249.362 38.368C249.362 37.9573 249.245 37.6353 249.012 37.402C248.779 37.1687 248.424 36.9307 247.948 36.688C247.444 36.4267 247.038 36.184 246.73 35.96C246.422 35.7267 246.17 35.4373 245.974 35.092C245.787 34.7467 245.694 34.322 245.694 33.818C245.694 33.258 245.815 32.7727 246.058 32.362C246.31 31.942 246.655 31.62 247.094 31.396C247.533 31.172 248.032 31.06 248.592 31.06C248.919 31.06 249.236 31.102 249.544 31.186C249.852 31.2607 250.118 31.368 250.342 31.508C250.435 31.564 250.482 31.648 250.482 31.76C250.482 31.928 250.435 32.1287 250.342 32.362C250.249 32.5953 250.151 32.712 250.048 32.712C250.011 32.712 249.927 32.684 249.796 32.628C249.423 32.46 249.026 32.376 248.606 32.376C248.177 32.376 247.831 32.4927 247.57 32.726C247.309 32.9593 247.178 33.2767 247.178 33.678C247.178 33.9673 247.239 34.21 247.36 34.406C247.491 34.602 247.659 34.77 247.864 34.91C248.069 35.05 248.373 35.2273 248.774 35.442C249.231 35.6847 249.605 35.918 249.894 36.142C250.183 36.366 250.417 36.6507 250.594 36.996C250.771 37.332 250.86 37.752 250.86 38.256C250.86 39.1147 250.589 39.8007 250.048 40.314C249.516 40.8273 248.802 41.084 247.906 41.084ZM252.813 41.028C252.403 41.028 252.197 40.9113 252.197 40.678V30.808C252.197 30.5747 252.403 30.458 252.813 30.458H253.065C253.467 30.458 253.667 30.5747 253.667 30.808V34.532C253.873 34.2427 254.12 34.014 254.409 33.846C254.708 33.6687 255.035 33.58 255.389 33.58C255.893 33.58 256.304 33.7573 256.621 34.112C256.948 34.4667 257.111 34.9987 257.111 35.708V40.678C257.111 40.9113 256.911 41.028 256.509 41.028H256.271C255.861 41.028 255.655 40.9113 255.655 40.678V35.918C255.655 35.1807 255.366 34.812 254.787 34.812C254.517 34.812 254.279 34.9053 254.073 35.092C253.877 35.2693 253.742 35.4513 253.667 35.638V40.678C253.667 40.9113 253.462 41.028 253.051 41.028H252.813ZM259.692 41.028C259.263 41.028 259.048 40.9113 259.048 40.678V34C259.048 33.7667 259.263 33.65 259.692 33.65H259.832C260.262 33.65 260.476 33.7667 260.476 34V40.678C260.476 40.9113 260.262 41.028 259.832 41.028H259.692ZM259.776 32.754C259.282 32.754 259.034 32.6373 259.034 32.404V31.494C259.034 31.2607 259.282 31.144 259.776 31.144C260.262 31.144 260.504 31.2607 260.504 31.494V32.404C260.504 32.6373 260.262 32.754 259.776 32.754ZM263.149 43.898C262.738 43.898 262.533 43.786 262.533 43.562V35.876C262.533 35.2693 262.505 34.826 262.449 34.546C262.402 34.2567 262.379 34.0887 262.379 34.042C262.379 33.9207 262.5 33.832 262.743 33.776C262.995 33.72 263.219 33.692 263.415 33.692C263.555 33.692 263.653 33.7527 263.709 33.874C263.765 33.9953 263.807 34.1353 263.835 34.294C263.863 34.4527 263.882 34.56 263.891 34.616C264.087 34.28 264.32 34.0233 264.591 33.846C264.871 33.6687 265.174 33.58 265.501 33.58C265.94 33.58 266.322 33.7387 266.649 34.056C266.985 34.364 267.242 34.8073 267.419 35.386C267.596 35.9553 267.685 36.618 267.685 37.374C267.685 38.55 267.475 39.4647 267.055 40.118C266.635 40.7713 266.07 41.098 265.361 41.098C265.062 41.098 264.801 41.042 264.577 40.93C264.362 40.818 264.162 40.664 263.975 40.468V43.562C263.975 43.786 263.77 43.898 263.359 43.898H263.149ZM264.997 39.88C265.79 39.88 266.187 39.0447 266.187 37.374C266.187 36.534 266.094 35.8947 265.907 35.456C265.73 35.0173 265.464 34.798 265.109 34.798C264.904 34.798 264.703 34.8727 264.507 35.022C264.311 35.1713 264.134 35.3813 263.975 35.652V39.376C264.264 39.712 264.605 39.88 264.997 39.88ZM269.93 43.898C269.52 43.898 269.314 43.786 269.314 43.562V35.876C269.314 35.2693 269.286 34.826 269.23 34.546C269.184 34.2567 269.16 34.0887 269.16 34.042C269.16 33.9207 269.282 33.832 269.524 33.776C269.776 33.72 270 33.692 270.196 33.692C270.336 33.692 270.434 33.7527 270.49 33.874C270.546 33.9953 270.588 34.1353 270.616 34.294C270.644 34.4527 270.663 34.56 270.672 34.616C270.868 34.28 271.102 34.0233 271.372 33.846C271.652 33.6687 271.956 33.58 272.282 33.58C272.721 33.58 273.104 33.7387 273.43 34.056C273.766 34.364 274.023 34.8073 274.2 35.386C274.378 35.9553 274.466 36.618 274.466 37.374C274.466 38.55 274.256 39.4647 273.836 40.118C273.416 40.7713 272.852 41.098 272.142 41.098C271.844 41.098 271.582 41.042 271.358 40.93C271.144 40.818 270.943 40.664 270.756 40.468V43.562C270.756 43.786 270.551 43.898 270.14 43.898H269.93ZM271.778 39.88C272.572 39.88 272.968 39.0447 272.968 37.374C272.968 36.534 272.875 35.8947 272.688 35.456C272.511 35.0173 272.245 34.798 271.89 34.798C271.685 34.798 271.484 34.8727 271.288 35.022C271.092 35.1713 270.915 35.3813 270.756 35.652V39.376C271.046 39.712 271.386 39.88 271.778 39.88ZM276.81 41.028C276.38 41.028 276.166 40.9113 276.166 40.678V34C276.166 33.7667 276.38 33.65 276.81 33.65H276.95C277.379 33.65 277.594 33.7667 277.594 34V40.678C277.594 40.9113 277.379 41.028 276.95 41.028H276.81ZM276.894 32.754C276.399 32.754 276.152 32.6373 276.152 32.404V31.494C276.152 31.2607 276.399 31.144 276.894 31.144C277.379 31.144 277.622 31.2607 277.622 31.494V32.404C277.622 32.6373 277.379 32.754 276.894 32.754ZM280.238 41.028C279.837 41.028 279.636 40.9113 279.636 40.678V35.876C279.636 35.26 279.613 34.812 279.566 34.532C279.52 34.252 279.496 34.0933 279.496 34.056C279.496 33.9347 279.622 33.846 279.874 33.79C280.136 33.7247 280.355 33.692 280.532 33.692C280.682 33.692 280.78 33.7527 280.826 33.874C280.882 33.986 280.924 34.126 280.952 34.294C280.98 34.4527 280.999 34.5693 281.008 34.644C281.223 34.3173 281.484 34.0607 281.792 33.874C282.1 33.678 282.436 33.58 282.8 33.58C283.36 33.58 283.79 33.7667 284.088 34.14C284.387 34.5133 284.536 35.036 284.536 35.708V40.678C284.536 40.9113 284.336 41.028 283.934 41.028H283.696C283.276 41.028 283.066 40.9113 283.066 40.678V35.918C283.066 35.1807 282.782 34.812 282.212 34.812C281.988 34.812 281.778 34.8867 281.582 35.036C281.386 35.1853 281.223 35.386 281.092 35.638V40.678C281.092 40.9113 280.892 41.028 280.49 41.028H280.238ZM288.518 43.968C287.678 43.968 287.043 43.814 286.614 43.506C286.185 43.2073 285.97 42.7547 285.97 42.148C285.97 41.756 286.068 41.406 286.264 41.098C286.46 40.7993 286.731 40.566 287.076 40.398V40.356C286.917 40.244 286.796 40.0993 286.712 39.922C286.628 39.7447 286.586 39.5487 286.586 39.334C286.586 38.7927 286.81 38.3587 287.258 38.032C286.558 37.6867 286.208 37.0147 286.208 36.016C286.208 35.26 286.418 34.6673 286.838 34.238C287.258 33.7993 287.846 33.58 288.602 33.58C288.807 33.58 289.05 33.6127 289.33 33.678H291.346C291.458 33.678 291.537 33.7153 291.584 33.79C291.631 33.8647 291.654 33.986 291.654 34.154V34.336C291.654 34.4947 291.631 34.6113 291.584 34.686C291.547 34.7513 291.477 34.784 291.374 34.784C291.01 34.784 290.772 34.7747 290.66 34.756L290.632 34.784C290.856 35.1667 290.968 35.582 290.968 36.03C290.968 36.7113 290.772 37.2667 290.38 37.696C289.988 38.116 289.447 38.34 288.756 38.368C288.14 38.3867 287.832 38.6387 287.832 39.124C287.832 39.3853 287.939 39.5673 288.154 39.67C288.369 39.7633 288.695 39.8427 289.134 39.908L289.47 39.964C290.711 40.1693 291.332 40.79 291.332 41.826C291.332 42.5073 291.089 43.0347 290.604 43.408C290.119 43.7813 289.423 43.968 288.518 43.968ZM288.588 37.276C288.924 37.276 289.19 37.1827 289.386 36.996C289.591 36.8093 289.694 36.478 289.694 36.002C289.694 35.4887 289.591 35.134 289.386 34.938C289.19 34.742 288.924 34.644 288.588 34.644C288.243 34.644 287.972 34.742 287.776 34.938C287.589 35.134 287.496 35.4887 287.496 36.002C287.496 36.478 287.594 36.8093 287.79 36.996C287.986 37.1827 288.252 37.276 288.588 37.276ZM288.63 42.876C289.582 42.876 290.058 42.568 290.058 41.952C290.058 41.7187 289.993 41.5367 289.862 41.406C289.741 41.2753 289.587 41.182 289.4 41.126C289.213 41.0793 288.957 41.0327 288.63 40.986C288.275 40.93 288.023 40.8787 287.874 40.832C287.687 40.944 287.538 41.0933 287.426 41.28C287.314 41.4667 287.258 41.6813 287.258 41.924C287.258 42.2413 287.375 42.4793 287.608 42.638C287.841 42.7967 288.182 42.876 288.63 42.876Z" fill="#642A75"/>
<path d="M2.884 41.112C2.42667 41.112 1.974 41.0467 1.526 40.916C1.078 40.776 0.751333 40.5893 0.546 40.356C0.424667 40.188 0.364 40.0247 0.364 39.866C0.364 39.6047 0.434 39.3387 0.574 39.068C0.714 38.7973 0.868 38.662 1.036 38.662C1.11067 38.662 1.22733 38.7087 1.386 38.802C1.554 38.8953 1.67533 38.9607 1.75 38.998C2.114 39.1847 2.436 39.278 2.716 39.278C3.01467 39.278 3.276 39.208 3.5 39.068C3.724 38.928 3.836 38.69 3.836 38.354C3.836 37.9993 3.72867 37.724 3.514 37.528C3.29933 37.3227 2.96333 37.0987 2.506 36.856C1.806 36.4547 1.29267 36.0393 0.966 35.61C0.648667 35.1807 0.49 34.6113 0.49 33.902C0.49 33.3327 0.616 32.838 0.868 32.418C1.12 31.9887 1.46533 31.662 1.904 31.438C2.352 31.2047 2.86067 31.088 3.43 31.088C3.74733 31.088 4.08333 31.1393 4.438 31.242C4.79267 31.3353 5.068 31.452 5.264 31.592C5.432 31.7133 5.516 31.8767 5.516 32.082C5.516 32.3247 5.46 32.5813 5.348 32.852C5.24533 33.1227 5.11467 33.258 4.956 33.258C4.88133 33.258 4.746 33.2207 4.55 33.146C4.186 33.006 3.88267 32.936 3.64 32.936C3.248 32.936 2.97733 33.02 2.828 33.188C2.688 33.356 2.618 33.5473 2.618 33.762C2.618 34.098 2.70667 34.3547 2.884 34.532C3.06133 34.7 3.346 34.8867 3.738 35.092C3.822 35.1293 3.948 35.1947 4.116 35.288C4.76 35.6613 5.222 36.0627 5.502 36.492C5.79133 36.9213 5.936 37.486 5.936 38.186C5.936 38.7087 5.824 39.194 5.6 39.642C5.376 40.0807 5.03533 40.4353 4.578 40.706C4.12067 40.9767 3.556 41.112 2.884 41.112ZM8.67333 41.112C8.11333 41.112 7.67933 40.9347 7.37133 40.58C7.07266 40.216 6.92333 39.6653 6.92333 38.928V35.316H6.76933C6.61999 35.316 6.51266 35.26 6.44733 35.148C6.38199 35.036 6.34933 34.8587 6.34933 34.616V34.378C6.34933 34.1353 6.38199 33.958 6.44733 33.846C6.51266 33.734 6.61999 33.678 6.76933 33.678H6.92333L7.10533 32.348C7.15199 32.0493 7.40399 31.9 7.86133 31.9H8.29533C8.76199 31.9 8.99533 32.0493 8.99533 32.348V33.678H9.51333C9.66266 33.678 9.76999 33.734 9.83533 33.846C9.90066 33.958 9.93333 34.1353 9.93333 34.378V34.616C9.93333 34.8587 9.90066 35.036 9.83533 35.148C9.76999 35.26 9.66266 35.316 9.51333 35.316H8.99533V38.984C8.99533 39.152 9.01866 39.278 9.06533 39.362C9.12133 39.4367 9.20999 39.474 9.33133 39.474C9.37799 39.474 9.43866 39.4647 9.51333 39.446C9.59733 39.4273 9.66266 39.418 9.70933 39.418C9.82133 39.418 9.91933 39.5533 10.0033 39.824C10.0873 40.0853 10.1293 40.2813 10.1293 40.412C10.1293 40.6453 9.97066 40.8227 9.65333 40.944C9.33599 41.056 9.00933 41.112 8.67333 41.112ZM13.7845 41.112C12.7019 41.112 11.9039 40.7993 11.3905 40.174C10.8772 39.5393 10.6205 38.6107 10.6205 37.388C10.6205 36.0067 10.8725 35.0267 11.3765 34.448C11.8899 33.86 12.6085 33.566 13.5325 33.566C14.4472 33.566 15.1099 33.888 15.5205 34.532C15.9312 35.176 16.1365 36.1093 16.1365 37.332C16.1365 37.444 16.0385 37.612 15.8425 37.836C15.6559 38.0507 15.5159 38.158 15.4225 38.158H12.7625C12.7812 38.634 12.8885 38.9747 13.0845 39.18C13.2805 39.376 13.5465 39.474 13.8825 39.474C14.0879 39.474 14.2745 39.446 14.4425 39.39C14.6105 39.334 14.7739 39.2687 14.9325 39.194C15.0912 39.11 15.1892 39.068 15.2265 39.068C15.3199 39.068 15.4225 39.138 15.5345 39.278C15.6559 39.4087 15.7539 39.5627 15.8285 39.74C15.9125 39.908 15.9545 40.0387 15.9545 40.132C15.9545 40.3467 15.8285 40.5287 15.5765 40.678C15.3245 40.818 15.0259 40.9253 14.6805 41C14.3445 41.0747 14.0459 41.112 13.7845 41.112ZM14.2465 36.912C14.2465 36.2493 14.1905 35.778 14.0785 35.498C13.9665 35.2087 13.7799 35.064 13.5185 35.064C13.2665 35.064 13.0705 35.1993 12.9305 35.47C12.7999 35.7407 12.7159 36.2213 12.6785 36.912H14.2465ZM18.07 43.884C17.51 43.884 17.23 43.7347 17.23 43.436V36.142C17.23 35.7127 17.216 35.3907 17.188 35.176C17.1693 34.952 17.1413 34.7047 17.104 34.434C17.076 34.3033 17.062 34.2053 17.062 34.14C17.062 33.9907 17.2486 33.8787 17.622 33.804C18.0046 33.7293 18.3406 33.692 18.63 33.692C18.8166 33.692 18.9426 33.7667 19.008 33.916C19.0826 34.0653 19.148 34.2753 19.204 34.546C19.344 34.2567 19.5446 34.0233 19.806 33.846C20.0673 33.6593 20.3613 33.566 20.688 33.566C21.0986 33.566 21.458 33.7153 21.766 34.014C22.0833 34.3033 22.3306 34.7373 22.508 35.316C22.6946 35.8853 22.788 36.5713 22.788 37.374C22.788 38.5687 22.5826 39.4927 22.172 40.146C21.7613 40.79 21.1873 41.112 20.45 41.112C19.9926 41.112 19.61 40.9767 19.302 40.706V43.436C19.302 43.7347 19.022 43.884 18.462 43.884H18.07ZM19.876 39.474C20.156 39.474 20.3613 39.3107 20.492 38.984C20.6226 38.648 20.688 38.0973 20.688 37.332C20.688 36.604 20.632 36.0767 20.52 35.75C20.408 35.4233 20.2306 35.26 19.988 35.26C19.7173 35.26 19.4886 35.4467 19.302 35.82V39.278C19.4886 39.4087 19.68 39.474 19.876 39.474ZM26.1213 41C25.9719 41 25.8646 40.944 25.7993 40.832C25.7339 40.72 25.7013 40.5427 25.7013 40.3V40.062C25.7013 39.8193 25.7339 39.642 25.7993 39.53C25.8646 39.418 25.9719 39.362 26.1213 39.362H27.6193V33.076L26.1073 33.286C25.9486 33.286 25.8319 33.16 25.7573 32.908C25.6919 32.6467 25.6593 32.3807 25.6593 32.11C25.6593 31.8953 25.7806 31.7647 26.0233 31.718L29.1173 31.144C29.2386 31.144 29.3646 31.1813 29.4953 31.256C29.6259 31.3213 29.6913 31.396 29.6913 31.48V39.362H31.0073C31.1566 39.362 31.2639 39.418 31.3293 39.53C31.3946 39.642 31.4273 39.8193 31.4273 40.062V40.3C31.4273 40.5427 31.3946 40.72 31.3293 40.832C31.2639 40.944 31.1566 41 31.0073 41H26.1213ZM32.225 42.078C32.057 42.078 31.9357 42.0593 31.861 42.022C31.7957 41.994 31.763 41.938 31.763 41.854C31.763 41.826 31.8237 41.616 31.945 41.224L35.221 31.452C35.2677 31.3493 35.333 31.2747 35.417 31.228C35.5104 31.1813 35.641 31.158 35.809 31.158H35.907C36.075 31.158 36.1917 31.1767 36.257 31.214C36.3224 31.242 36.355 31.2933 36.355 31.368C36.355 31.4147 36.3084 31.5687 36.215 31.83L32.869 41.798C32.8317 41.9007 32.771 41.9707 32.687 42.008C32.603 42.0547 32.4724 42.078 32.295 42.078H32.225ZM39.2902 41.098C38.8796 41.098 38.4782 41.0607 38.0862 40.986C37.7036 40.902 37.3909 40.79 37.1482 40.65C36.9056 40.51 36.7842 40.356 36.7842 40.188C36.7842 40.0573 36.8496 39.894 36.9802 39.698C37.1202 39.4927 37.2369 39.39 37.3302 39.39C37.3769 39.39 37.4842 39.432 37.6522 39.516C37.8856 39.6373 38.1142 39.7353 38.3382 39.81C38.5622 39.8753 38.8236 39.908 39.1222 39.908C39.5889 39.908 39.9949 39.768 40.3402 39.488C40.6856 39.1987 40.8582 38.7413 40.8582 38.116C40.8582 37.5093 40.6996 37.0753 40.3822 36.814C40.0649 36.5433 39.6029 36.408 38.9962 36.408H38.4502C38.3382 36.408 38.2542 36.3707 38.1982 36.296C38.1516 36.212 38.1282 36.0813 38.1282 35.904V35.722C38.1282 35.5447 38.1516 35.4187 38.1982 35.344C38.2542 35.2693 38.3382 35.232 38.4502 35.232H38.9122C39.2856 35.232 39.5936 35.148 39.8362 34.98C40.0882 34.8027 40.2702 34.588 40.3822 34.336C40.4942 34.084 40.5502 33.8367 40.5502 33.594C40.5502 33.2393 40.4382 32.936 40.2142 32.684C39.9996 32.432 39.6402 32.306 39.1362 32.306C38.8562 32.306 38.6182 32.3387 38.4222 32.404C38.2356 32.4693 38.0629 32.544 37.9042 32.628C37.7456 32.712 37.6476 32.754 37.6102 32.754C37.5169 32.754 37.4049 32.6513 37.2742 32.446C37.1436 32.2407 37.0782 32.068 37.0782 31.928C37.0782 31.6947 37.3209 31.4987 37.8062 31.34C38.3009 31.1813 38.8096 31.102 39.3322 31.102C40.1536 31.102 40.8022 31.3167 41.2782 31.746C41.7636 32.1753 42.0062 32.768 42.0062 33.524C42.0062 34.028 41.8756 34.448 41.6142 34.784C41.3622 35.12 41.0262 35.372 40.6062 35.54V35.596C41.1009 35.7453 41.5116 36.044 41.8382 36.492C42.1649 36.94 42.3282 37.5047 42.3282 38.186C42.3282 39.1007 42.0436 39.8147 41.4742 40.328C40.9142 40.8413 40.1862 41.098 39.2902 41.098Z" fill="#642A75"/>
<defs>
<filter id="filter0_d_1001_40" x="3" y="0" width="28" height="28" filterUnits="userSpaceOnUse" color-interpolation-filters="sRGB">
<feFlood flood-opacity="0" result="BackgroundImageFix"/>
<feColorMatrix in="SourceAlpha" type="matrix" values="0 0 0 0 0 0 0 0 0 0 0 0 0 0 0 0 0 0 127 0" result="hardAlpha"/>
<feOffset dy="1"/>
<feGaussianBlur stdDeviation="2"/>
<feComposite in2="hardAlpha" operator="out"/>
<feColorMatrix type="matrix" values="0 0 0 0 0.392157 0 0 0 0 0.164706 0 0 0 0 0.458824 0 0 0 0.6 0"/>
<feBlend mode="normal" in2="BackgroundImageFix" result="effect1_dropShadow_1001_40"/>
<feBlend mode="normal" in="SourceGraphic" in2="effect1_dropShadow_1001_40" result="shape"/>
</filter>
</defs>
</svg>
